<svg width="448" height="65" viewBox="0 0 448 65" fill="none" xmlns="http://www.w3.org/2000/svg">
<path d="M173.771 30.2373L174.069 29.384H189.131L188.789 30.2373H173.771ZM190.325 19.3147C190.61 18.2622 190.724 17.4942 190.667 17.0107C190.638 16.4987 190.396 16.1573 189.941 15.9867C189.486 15.7876 188.775 15.6738 187.808 15.6453L188.021 14.792C188.761 14.8204 189.7 14.8489 190.837 14.8773C191.975 14.9058 193.127 14.92 194.293 14.92C195.602 14.92 196.825 14.9058 197.963 14.8773C199.129 14.8489 200.068 14.8204 200.779 14.792L200.565 15.6453C199.598 15.6738 198.844 15.7876 198.304 15.9867C197.764 16.1573 197.337 16.4987 197.024 17.0107C196.74 17.4942 196.455 18.2622 196.171 19.3147L190.539 40.4773C190.283 41.5013 190.169 42.2693 190.197 42.7813C190.226 43.2933 190.468 43.6347 190.923 43.8053C191.378 43.976 192.089 44.0898 193.056 44.1467L192.885 45C192.203 44.9431 191.278 44.9147 190.112 44.9147C188.974 44.8862 187.751 44.872 186.443 44.872C185.276 44.872 184.124 44.8862 182.987 44.9147C181.849 44.9147 180.896 44.9431 180.128 45L180.299 44.1467C181.266 44.0898 182.02 43.976 182.56 43.8053C183.1 43.6347 183.527 43.2933 183.84 42.7813C184.153 42.2693 184.437 41.5013 184.693 40.4773L190.325 19.3147ZM172.704 40.4773C172.448 41.5013 172.334 42.2693 172.363 42.7813C172.391 43.2933 172.633 43.6347 173.088 43.8053C173.543 43.976 174.254 44.0898 175.221 44.1467L175.051 45C174.311 44.9431 173.372 44.9147 172.235 44.9147C171.097 44.8862 169.945 44.872 168.779 44.872C167.47 44.872 166.247 44.8862 165.109 44.9147C164 44.9147 163.076 44.9431 162.336 45L162.549 44.1467C163.488 44.0898 164.213 43.976 164.725 43.8053C165.266 43.6347 165.692 43.2933 166.005 42.7813C166.318 42.2693 166.603 41.5013 166.859 40.4773L172.491 19.3147C172.775 18.2622 172.889 17.4942 172.832 17.0107C172.775 16.4987 172.519 16.1573 172.064 15.9867C171.637 15.7876 170.94 15.6738 169.973 15.6453L170.187 14.792C170.869 14.8204 171.78 14.8489 172.917 14.8773C174.084 14.9058 175.321 14.92 176.629 14.92C177.796 14.92 178.933 14.9058 180.043 14.8773C181.18 14.8489 182.148 14.8204 182.944 14.792L182.731 15.6453C181.764 15.6738 181.01 15.7876 180.469 15.9867C179.929 16.1573 179.502 16.4987 179.189 17.0107C178.905 17.4942 178.62 18.2622 178.336 19.3147L172.704 40.4773ZM210.422 23.24C209.682 23.24 208.929 23.624 208.161 24.392C207.393 25.1316 206.667 26.1556 205.985 27.464C205.302 28.744 204.676 30.1804 204.107 31.7733C203.567 33.3662 203.14 35.016 202.827 36.7227C202.514 38.4009 202.358 40.008 202.358 41.544C202.358 42.6818 202.5 43.5067 202.785 44.0187C203.098 44.5022 203.553 44.744 204.15 44.744C204.861 44.744 205.601 44.3742 206.369 43.6347C207.137 42.8951 207.862 41.8996 208.545 40.648C209.256 39.368 209.882 37.9458 210.422 36.3813C210.962 34.7884 211.389 33.1387 211.702 31.432C212.015 29.7253 212.171 28.0613 212.171 26.44C212.171 25.2453 212.015 24.4204 211.702 23.9653C211.418 23.4818 210.991 23.24 210.422 23.24ZM197.323 38.6853C197.323 37.4053 197.494 36.0258 197.835 34.5467C198.205 33.0676 198.746 31.6169 199.457 30.1947C200.168 28.744 201.05 27.4356 202.102 26.2693C203.183 25.0747 204.434 24.136 205.857 23.4533C207.279 22.7422 208.886 22.3867 210.678 22.3867C212.726 22.3867 214.319 22.9698 215.457 24.136C216.623 25.2738 217.206 26.9947 217.206 29.2987C217.206 30.5787 217.021 31.9582 216.651 33.4373C216.31 34.9164 215.784 36.3813 215.073 37.832C214.362 39.2542 213.466 40.5627 212.385 41.7573C211.332 42.9236 210.095 43.8622 208.673 44.5733C207.25 45.256 205.643 45.5973 203.851 45.5973C201.803 45.5973 200.196 45.0142 199.03 43.848C197.892 42.6818 197.323 40.9609 197.323 38.6853ZM224.47 45H219.222L224.342 26.6107C224.456 26.2693 224.527 25.928 224.555 25.5867C224.612 25.2453 224.584 24.9467 224.47 24.6907C224.385 24.4347 224.171 24.3067 223.83 24.3067C223.29 24.3067 222.792 24.5911 222.337 25.16C221.882 25.7004 221.412 26.6391 220.929 27.976L220.203 29.9813H219.393L220.502 26.7813C220.9 25.6436 221.398 24.7618 221.995 24.136C222.621 23.4818 223.275 23.0267 223.958 22.7707C224.669 22.5147 225.366 22.3867 226.049 22.3867C226.987 22.3867 227.684 22.5716 228.139 22.9413C228.594 23.3111 228.893 23.7947 229.035 24.392C229.178 24.9893 229.192 25.6436 229.078 26.3547C228.993 27.0373 228.865 27.7058 228.694 28.36L224.47 45ZM235.35 27.336C235.521 26.824 235.634 26.3547 235.691 25.928C235.777 25.4729 235.762 25.1173 235.649 24.8613C235.535 24.5769 235.265 24.4347 234.838 24.4347C234.155 24.4347 233.402 24.8613 232.577 25.7147C231.78 26.568 230.955 27.7627 230.102 29.2987C229.249 30.8347 228.41 32.6409 227.585 34.7173C226.788 36.7653 226.034 39.0124 225.323 41.4587L225.963 37.2347C227.215 33.5938 228.395 30.6924 229.505 28.5307C230.642 26.3404 231.837 24.776 233.089 23.8373C234.34 22.8702 235.748 22.3867 237.313 22.3867C238.223 22.3867 238.906 22.5716 239.361 22.9413C239.844 23.3111 240.157 23.8089 240.299 24.4347C240.47 25.032 240.498 25.7147 240.385 26.4827C240.299 27.2507 240.143 28.0329 239.915 28.8293L235.435 45H230.102L235.35 27.336ZM246.486 27.336C246.742 26.5396 246.87 25.8569 246.87 25.288C246.87 24.7191 246.642 24.4347 246.187 24.4347C245.505 24.4347 244.779 24.8187 244.011 25.5867C243.243 26.3547 242.418 27.5067 241.537 29.0427C240.683 30.5502 239.816 32.3991 238.934 34.5893C238.052 36.7796 237.156 39.3111 236.246 42.184L236.673 38.8133C237.697 35.656 238.678 33.0249 239.617 30.92C240.555 28.8151 241.494 27.1369 242.433 25.8853C243.371 24.6338 244.338 23.7378 245.334 23.1973C246.358 22.6569 247.439 22.3867 248.577 22.3867C249.8 22.3867 250.667 22.6996 251.179 23.3253C251.691 23.9511 251.933 24.7476 251.905 25.7147C251.876 26.6818 251.677 27.72 251.307 28.8293L247.126 41.3733C246.842 42.2267 246.77 42.824 246.913 43.1653C247.055 43.5067 247.339 43.6773 247.766 43.6773C248.193 43.6773 248.634 43.4356 249.089 42.952C249.572 42.4684 250.084 41.4871 250.625 40.008L251.307 38.088H252.118L251.051 41.2027C250.653 42.3973 250.141 43.3076 249.515 43.9333C248.918 44.5591 248.264 44.9858 247.553 45.2133C246.87 45.4693 246.202 45.5973 245.547 45.5973C244.722 45.5973 244.054 45.4693 243.542 45.2133C243.03 44.9858 242.632 44.6444 242.347 44.1893C242.006 43.6204 241.864 42.9093 241.921 42.056C242.006 41.2027 242.234 40.2071 242.603 39.0693L246.486 27.336ZM258.623 35.6133C259.96 35.1013 261.183 34.5751 262.293 34.0347C263.43 33.4658 264.383 32.8684 265.151 32.2427C266.204 31.304 267.057 30.2089 267.711 28.9573C268.366 27.6773 268.693 26.2836 268.693 24.776C268.693 24.1218 268.636 23.6951 268.522 23.496C268.408 23.2969 268.238 23.1973 268.01 23.1973C267.356 23.1973 266.645 23.5102 265.877 24.136C265.109 24.7618 264.355 25.6293 263.615 26.7387C262.876 27.8196 262.193 29.0427 261.567 30.408C260.97 31.7733 260.486 33.2098 260.117 34.7173C259.747 36.2249 259.562 37.7182 259.562 39.1973C259.562 40.7049 259.846 41.7716 260.415 42.3973C261.013 42.9947 261.795 43.2933 262.762 43.2933C263.587 43.2933 264.568 43.0231 265.706 42.4827C266.844 41.9422 267.967 40.9609 269.077 39.5387L269.759 39.88C269.19 40.8187 268.437 41.7289 267.498 42.6107C266.559 43.4924 265.478 44.2178 264.255 44.7867C263.061 45.3271 261.738 45.5973 260.287 45.5973C259.093 45.5973 258.012 45.3698 257.045 44.9147C256.078 44.4596 255.324 43.7911 254.783 42.9093C254.243 41.9991 253.973 40.8898 253.973 39.5813C253.973 38.1876 254.214 36.7084 254.698 35.144C255.182 33.5511 255.864 32.0009 256.746 30.4933C257.656 28.9858 258.723 27.6204 259.946 26.3973C261.198 25.1742 262.577 24.2071 264.085 23.496C265.592 22.7564 267.214 22.3867 268.949 22.3867C270.086 22.3867 271.039 22.6569 271.807 23.1973C272.575 23.7093 272.959 24.5058 272.959 25.5867C272.959 26.696 272.646 27.7342 272.021 28.7013C271.395 29.6684 270.542 30.5502 269.461 31.3467C268.408 32.1431 267.242 32.8542 265.962 33.48C264.71 34.1058 263.445 34.6462 262.165 35.1013C260.885 35.5564 259.69 35.9262 258.581 36.2107L258.623 35.6133ZM304.092 14.792C303.666 15.9013 303.225 17.2524 302.77 18.8453C302.315 20.4098 301.845 22.3298 301.362 24.6053H300.423C300.679 23.1547 300.779 21.9031 300.722 20.8507C300.693 19.7698 300.48 18.8596 300.082 18.12C299.541 17.096 298.802 16.3422 297.863 15.8587C296.953 15.3751 295.943 15.1333 294.834 15.1333C293.411 15.1333 292.018 15.5316 290.652 16.328C289.315 17.1244 288.078 18.2196 286.94 19.6133C285.803 21.0071 284.793 22.6 283.911 24.392C283.058 26.184 282.389 28.0898 281.906 30.1093C281.422 32.1004 281.18 34.0916 281.18 36.0827C281.18 38.9271 281.707 41.0462 282.759 42.44C283.84 43.8053 285.291 44.488 287.111 44.488C288.192 44.488 289.358 44.232 290.61 43.72C291.861 43.208 292.942 42.4684 293.852 41.5013C294.62 40.7049 295.275 39.7947 295.815 38.7707C296.384 37.7467 297.01 36.4098 297.692 34.76H298.631C297.92 37.3484 297.365 39.4391 296.967 41.032C296.597 42.5964 296.313 43.9191 296.114 45H295.175C295.26 44.4027 295.303 43.9191 295.303 43.5493C295.303 42.9236 295.189 42.568 294.962 42.4827C294.734 42.3973 294.379 42.5111 293.895 42.824C293.155 43.336 292.373 43.8053 291.548 44.232C290.723 44.6302 289.827 44.9573 288.86 45.2133C287.922 45.4693 286.855 45.5973 285.66 45.5973C282.048 45.5973 279.317 44.7013 277.468 42.9093C275.619 41.1173 274.695 38.5573 274.695 35.2293C274.695 33.2382 275.008 31.2471 275.634 29.256C276.288 27.2649 277.198 25.3733 278.364 23.5813C279.559 21.7609 280.967 20.1538 282.588 18.76C284.238 17.3378 286.059 16.2284 288.05 15.432C290.069 14.6071 292.231 14.1947 294.535 14.1947C295.73 14.1947 296.711 14.3369 297.479 14.6213C298.247 14.8773 298.901 15.2187 299.442 15.6453C299.982 16.0436 300.451 16.4844 300.85 16.968C301.248 17.3947 301.632 17.4516 302.002 17.1387C302.371 16.7973 302.77 16.0151 303.196 14.792H304.092ZM315.197 23.24C314.457 23.24 313.704 23.624 312.936 24.392C312.168 25.1316 311.442 26.1556 310.76 27.464C310.077 28.744 309.451 30.1804 308.882 31.7733C308.342 33.3662 307.915 35.016 307.602 36.7227C307.289 38.4009 307.133 40.008 307.133 41.544C307.133 42.6818 307.275 43.5067 307.56 44.0187C307.873 44.5022 308.328 44.744 308.925 44.744C309.636 44.744 310.376 44.3742 311.144 43.6347C311.912 42.8951 312.637 41.8996 313.32 40.648C314.031 39.368 314.657 37.9458 315.197 36.3813C315.737 34.7884 316.164 33.1387 316.477 31.432C316.79 29.7253 316.946 28.0613 316.946 26.44C316.946 25.2453 316.79 24.4204 316.477 23.9653C316.193 23.4818 315.766 23.24 315.197 23.24ZM302.098 38.6853C302.098 37.4053 302.269 36.0258 302.61 34.5467C302.98 33.0676 303.521 31.6169 304.232 30.1947C304.943 28.744 305.825 27.4356 306.877 26.2693C307.958 25.0747 309.209 24.136 310.632 23.4533C312.054 22.7422 313.661 22.3867 315.453 22.3867C317.501 22.3867 319.094 22.9698 320.232 24.136C321.398 25.2738 321.981 26.9947 321.981 29.2987C321.981 30.5787 321.796 31.9582 321.426 33.4373C321.085 34.9164 320.559 36.3813 319.848 37.832C319.137 39.2542 318.241 40.5627 317.16 41.7573C316.107 42.9236 314.87 43.8622 313.448 44.5733C312.025 45.256 310.418 45.5973 308.626 45.5973C306.578 45.5973 304.971 45.0142 303.805 43.848C302.667 42.6818 302.098 40.9609 302.098 38.6853ZM336.797 23.24C336.057 23.24 335.304 23.624 334.536 24.392C333.768 25.1316 333.042 26.1556 332.36 27.464C331.677 28.744 331.051 30.1804 330.482 31.7733C329.942 33.3662 329.515 35.016 329.202 36.7227C328.889 38.4009 328.733 40.008 328.733 41.544C328.733 42.6818 328.875 43.5067 329.16 44.0187C329.473 44.5022 329.928 44.744 330.525 44.744C331.236 44.744 331.976 44.3742 332.744 43.6347C333.512 42.8951 334.237 41.8996 334.92 40.648C335.631 39.368 336.257 37.9458 336.797 36.3813C337.337 34.7884 337.764 33.1387 338.077 31.432C338.39 29.7253 338.546 28.0613 338.546 26.44C338.546 25.2453 338.39 24.4204 338.077 23.9653C337.793 23.4818 337.366 23.24 336.797 23.24ZM323.698 38.6853C323.698 37.4053 323.869 36.0258 324.21 34.5467C324.58 33.0676 325.121 31.6169 325.832 30.1947C326.543 28.744 327.425 27.4356 328.477 26.2693C329.558 25.0747 330.809 24.136 332.232 23.4533C333.654 22.7422 335.261 22.3867 337.053 22.3867C339.101 22.3867 340.694 22.9698 341.832 24.136C342.998 25.2738 343.581 26.9947 343.581 29.2987C343.581 30.5787 343.396 31.9582 343.026 33.4373C342.685 34.9164 342.159 36.3813 341.448 37.832C340.737 39.2542 339.841 40.5627 338.76 41.7573C337.707 42.9236 336.47 43.8622 335.048 44.5733C333.625 45.256 332.018 45.5973 330.226 45.5973C328.178 45.5973 326.571 45.0142 325.405 43.848C324.267 42.6818 323.698 40.9609 323.698 38.6853ZM349.266 45H344.018L352.466 16.5413C352.751 15.5742 352.708 14.8631 352.338 14.408C351.997 13.9529 351.129 13.7253 349.736 13.7253L350.034 12.8293C351.912 12.8009 353.576 12.6444 355.026 12.36C356.505 12.0471 357.899 11.6204 359.208 11.08L349.266 45ZM360.616 41.928C360.502 42.5822 360.502 43.0373 360.616 43.2933C360.729 43.5493 360.971 43.6773 361.341 43.6773C361.796 43.6773 362.251 43.4356 362.706 42.952C363.161 42.44 363.645 41.4587 364.157 40.008L364.797 38.088H365.608L364.584 41.2027C364.185 42.3689 363.673 43.2649 363.048 43.8907C362.45 44.5164 361.782 44.9573 361.042 45.2133C360.303 45.4693 359.563 45.5973 358.824 45.5973C357.572 45.5973 356.648 45.2133 356.05 44.4453C355.453 43.6773 355.325 42.5111 355.666 40.9467L356.434 37.5333C356.804 35.9689 356.69 34.8311 356.093 34.12C355.496 33.4089 354.201 32.968 352.21 32.7973V32.6267C353.405 32.5413 354.6 32.5413 355.794 32.6267C356.989 32.712 358.056 32.968 358.994 33.3947C359.933 33.7929 360.63 34.3902 361.085 35.1867C361.54 35.9831 361.625 37.0356 361.341 38.344L360.616 41.928ZM363.218 23.24C362.849 23.24 362.521 23.2969 362.237 23.4107C361.981 23.5244 361.725 23.6809 361.469 23.88C360.957 24.3067 360.53 24.8898 360.189 25.6293C359.848 26.3404 359.506 27.1084 359.165 27.9333C358.852 28.7582 358.44 29.5404 357.928 30.28C357.444 31.0196 356.79 31.6311 355.965 32.1147C355.14 32.5698 354.059 32.7831 352.722 32.7547L352.296 32.7973L352.381 32.328C353.689 32.2427 354.728 31.9582 355.496 31.4747C356.292 30.9911 356.918 30.3938 357.373 29.6827C357.828 28.9431 358.198 28.1751 358.482 27.3787C358.795 26.5822 359.122 25.8284 359.464 25.1173C359.805 24.4062 360.26 23.8231 360.829 23.368C361.313 22.9698 361.782 22.7138 362.237 22.6C362.692 22.4578 363.105 22.3867 363.474 22.3867C364.726 22.3867 365.622 22.728 366.162 23.4107C366.703 24.0933 366.959 24.904 366.93 25.8427C366.93 26.4116 366.802 26.952 366.546 27.464C366.29 27.976 365.921 28.4027 365.437 28.744C364.953 29.0569 364.385 29.2133 363.73 29.2133C362.905 29.2133 362.294 28.9858 361.896 28.5307C361.526 28.0471 361.341 27.5067 361.341 26.9093C361.369 26.2267 361.611 25.5867 362.066 24.9893C362.55 24.3636 363.09 23.8516 363.688 23.4533C363.631 23.3964 363.56 23.3538 363.474 23.3253C363.389 23.2684 363.304 23.24 363.218 23.24ZM377.071 30.2373L377.369 29.384H392.431L392.089 30.2373H377.071ZM393.625 19.3147C393.91 18.2622 394.024 17.4942 393.967 17.0107C393.938 16.4987 393.696 16.1573 393.241 15.9867C392.786 15.7876 392.075 15.6738 391.108 15.6453L391.321 14.792C392.061 14.8204 393 14.8489 394.137 14.8773C395.275 14.9058 396.427 14.92 397.593 14.92C398.902 14.92 400.125 14.9058 401.263 14.8773C402.429 14.8489 403.368 14.8204 404.079 14.792L403.865 15.6453C402.898 15.6738 402.144 15.7876 401.604 15.9867C401.064 16.1573 400.637 16.4987 400.324 17.0107C400.04 17.4942 399.755 18.2622 399.471 19.3147L393.839 40.4773C393.583 41.5013 393.469 42.2693 393.497 42.7813C393.526 43.2933 393.768 43.6347 394.223 43.8053C394.678 43.976 395.389 44.0898 396.356 44.1467L396.185 45C395.503 44.9431 394.578 44.9147 393.412 44.9147C392.274 44.8862 391.051 44.872 389.743 44.872C388.576 44.872 387.424 44.8862 386.287 44.9147C385.149 44.9147 384.196 44.9431 383.428 45L383.599 44.1467C384.566 44.0898 385.32 43.976 385.86 43.8053C386.4 43.6347 386.827 43.2933 387.14 42.7813C387.453 42.2693 387.737 41.5013 387.993 40.4773L393.625 19.3147ZM376.004 40.4773C375.748 41.5013 375.634 42.2693 375.663 42.7813C375.691 43.2933 375.933 43.6347 376.388 43.8053C376.843 43.976 377.554 44.0898 378.521 44.1467L378.351 45C377.611 44.9431 376.672 44.9147 375.535 44.9147C374.397 44.8862 373.245 44.872 372.079 44.872C370.77 44.872 369.547 44.8862 368.409 44.9147C367.3 44.9147 366.376 44.9431 365.636 45L365.849 44.1467C366.788 44.0898 367.513 43.976 368.025 43.8053C368.566 43.6347 368.992 43.2933 369.305 42.7813C369.618 42.2693 369.903 41.5013 370.159 40.4773L375.791 19.3147C376.075 18.2622 376.189 17.4942 376.132 17.0107C376.075 16.4987 375.819 16.1573 375.364 15.9867C374.937 15.7876 374.24 15.6738 373.273 15.6453L373.487 14.792C374.169 14.8204 375.08 14.8489 376.217 14.8773C377.384 14.9058 378.621 14.92 379.929 14.92C381.096 14.92 382.233 14.9058 383.343 14.8773C384.48 14.8489 385.448 14.8204 386.244 14.792L386.031 15.6453C385.064 15.6738 384.31 15.7876 383.769 15.9867C383.229 16.1573 382.802 16.4987 382.489 17.0107C382.205 17.4942 381.92 18.2622 381.636 19.3147L376.004 40.4773ZM417.295 30.1093C416.214 33.1529 415.204 35.6702 414.266 37.6613C413.327 39.6524 412.388 41.2311 411.45 42.3973C410.539 43.5636 409.601 44.3884 408.634 44.872C407.667 45.3556 406.643 45.5973 405.562 45.5973C404.367 45.5973 403.457 45.3271 402.831 44.7867C402.234 44.2462 401.907 43.5067 401.85 42.568C401.793 41.6009 401.978 40.4631 402.404 39.1547L406.543 26.6107C406.827 25.7573 406.899 25.16 406.756 24.8187C406.614 24.4773 406.33 24.3067 405.903 24.3067C405.476 24.3067 405.021 24.5484 404.538 25.032C404.083 25.5156 403.585 26.4969 403.044 27.976L402.362 29.896H401.551L402.618 26.7813C403.044 25.5867 403.556 24.6764 404.154 24.0507C404.779 23.4249 405.434 22.9982 406.116 22.7707C406.827 22.5147 407.51 22.3867 408.164 22.3867C409.416 22.3867 410.312 22.6711 410.852 23.24C411.421 23.7804 411.706 24.5484 411.706 25.544C411.734 26.5111 411.521 27.6347 411.066 28.9147L407.183 40.648C406.5 42.696 406.699 43.72 407.78 43.72C408.378 43.72 409.032 43.3929 409.743 42.7387C410.454 42.056 411.179 41.1031 411.919 39.88C412.687 38.6284 413.441 37.1778 414.18 35.528C414.948 33.8782 415.674 32.0862 416.356 30.152C417.067 28.2178 417.707 26.184 418.276 24.0507L417.295 30.1093ZM418.618 41.3733C418.419 42.0844 418.333 42.6533 418.362 43.08C418.39 43.4782 418.646 43.6773 419.13 43.6773C419.67 43.6773 420.168 43.4071 420.623 42.8667C421.107 42.2978 421.59 41.3449 422.074 40.008L422.799 38.0027H423.61L422.5 41.2027C422.102 42.3404 421.59 43.2364 420.964 43.8907C420.367 44.5164 419.713 44.9573 419.002 45.2133C418.319 45.4693 417.636 45.5973 416.954 45.5973C416.271 45.5973 415.688 45.4693 415.204 45.2133C414.721 44.9858 414.365 44.6587 414.138 44.232C413.853 43.72 413.725 43.0942 413.754 42.3547C413.811 41.6151 413.981 40.7049 414.266 39.624L418.532 22.984C419.556 22.9556 420.523 22.8987 421.434 22.8133C422.344 22.728 423.183 22.5858 423.951 22.3867L418.618 41.3733ZM439.462 24.3493C438.836 24.3493 438.139 24.7618 437.371 25.5867C436.632 26.4116 435.878 27.5493 435.11 29C434.342 30.4222 433.617 32.0293 432.934 33.8213C432.251 35.6133 431.682 37.4907 431.227 39.4533L431.995 35.016C433.019 32.0009 434.029 29.5689 435.025 27.72C436.02 25.8711 437.044 24.52 438.097 23.6667C439.149 22.8133 440.258 22.3867 441.425 22.3867C443.018 22.3867 444.241 22.9271 445.094 24.008C445.976 25.0889 446.417 26.6818 446.417 28.7867C446.417 30.0951 446.232 31.5031 445.862 33.0107C445.492 34.5182 444.938 36.0116 444.198 37.4907C443.487 38.9698 442.605 40.3351 441.553 41.5867C440.5 42.8098 439.291 43.7911 437.926 44.5307C436.589 45.2418 435.082 45.5973 433.403 45.5973C432.578 45.5973 431.839 45.3982 431.185 45C430.53 44.6018 430.061 44.0471 429.777 43.336L430.118 42.6107C430.431 43.2649 430.786 43.7342 431.185 44.0187C431.611 44.3031 432.095 44.4453 432.635 44.4453C433.517 44.4453 434.37 44.0898 435.195 43.3787C436.02 42.6391 436.788 41.6578 437.499 40.4347C438.21 39.2116 438.836 37.8604 439.377 36.3813C439.917 34.8738 440.33 33.3662 440.614 31.8587C440.898 30.3227 441.041 28.8862 441.041 27.5493C441.041 26.4116 440.898 25.6009 440.614 25.1173C440.358 24.6053 439.974 24.3493 439.462 24.3493ZM430.246 43.2933C429.393 43.4924 428.497 43.8196 427.558 44.2747C426.648 44.7013 425.766 45.1707 424.913 45.6827L424.273 45.384C424.472 44.9858 424.642 44.5876 424.785 44.1893C424.898 43.7627 425.012 43.336 425.126 42.9093L432.721 16.5413C432.977 15.5742 432.934 14.8631 432.593 14.408C432.28 13.9529 431.426 13.7253 430.033 13.7253L430.289 12.8293C432.166 12.8009 433.816 12.6444 435.238 12.36C436.689 12.0471 438.068 11.6204 439.377 11.08L430.246 43.2933Z" fill="#474747"/>
<g filter="url(#filter0_i_218_157)">
<path d="M22 14.5436C22 13.8833 22.5353 13.348 23.1957 13.348H119.565V15.7393H23.1957C22.5353 15.7393 22 15.2039 22 14.5436Z" fill="white"/>
</g>
<mask id="path-3-inside-1_218_157" fill="white">
<path d="M2.39136 38.4567C2.39136 33.5702 6.35266 29.6089 11.2392 29.6089H129.609V47.3045H11.2392C6.35267 47.3045 2.39136 43.3432 2.39136 38.4567Z"/>
</mask>
<path d="M-4.60864 35.1924C-4.60864 29.3473 0.129774 24.6089 5.97491 24.6089H129.609V34.6089H11.2392C10.2187 34.6089 9.39136 36.3316 9.39136 38.4567L-4.60864 35.1924ZM129.609 47.3045H2.39136H129.609ZM7.50346 47.3045C0.81413 47.3045 -4.60864 41.8818 -4.60864 35.1924C-4.60864 29.3473 0.129774 24.6089 5.97491 24.6089L11.2392 34.6089C10.2187 34.6089 9.39136 36.3316 9.39136 38.4567C9.39136 43.3432 10.2187 47.3045 11.2392 47.3045H7.50346ZM129.609 29.6089V47.3045V29.6089Z" fill="black" mask="url(#path-3-inside-1_218_157)"/>
<mask id="path-5-inside-2_218_157" fill="white">
<path d="M16.261 21.7174C16.261 18.1516 19.1517 15.2609 22.7175 15.2609H121.957V28.174H22.7175C19.1517 28.174 16.261 25.2833 16.261 21.7174Z"/>
</mask>
<g filter="url(#filter1_i_218_157)">
<path d="M16.261 21.7174C16.261 18.1516 19.1517 15.2609 22.7175 15.2609H121.957V28.174H22.7175C19.1517 28.174 16.261 25.2833 16.261 21.7174Z" fill="white"/>
</g>
<path d="M9.26099 21.7174C9.26099 15.9425 13.9425 11.2609 19.7175 11.2609H121.957V19.2609H23.261C23.261 19.2609 23.261 20.3607 23.261 21.7174H9.26099ZM121.957 32.174H19.7175C13.9425 32.174 9.26099 27.4924 9.26099 21.7174H23.261C23.261 23.0741 23.261 24.174 23.261 24.174H121.957V32.174ZM19.7175 32.174C13.9425 32.174 9.26099 27.4924 9.26099 21.7174C9.26099 15.9425 13.9425 11.2609 19.7175 11.2609L23.261 19.2609C23.261 19.2609 23.261 20.3607 23.261 21.7174C23.261 23.0741 23.261 24.174 23.261 24.174L19.7175 32.174ZM121.957 15.2609V28.174V15.2609Z" fill="black" mask="url(#path-5-inside-2_218_157)"/>
<mask id="path-7-inside-3_218_157" fill="white">
<path d="M13.3914 7.36968C13.3914 3.80384 16.282 0.913155 19.8479 0.913155H120.044V13.8262H19.8479C16.282 13.8262 13.3914 10.9355 13.3914 7.36968Z"/>
</mask>
<g filter="url(#filter2_i_218_157)">
<path d="M13.3914 7.36968C13.3914 3.80384 16.282 0.913155 19.8479 0.913155H120.044V13.8262H19.8479C16.282 13.8262 13.3914 10.9355 13.3914 7.36968Z" fill="white"/>
</g>
<path d="M6.39136 7.36968C6.39136 1.5947 11.0729 -3.08685 16.8479 -3.08685H120.044V4.91315H20.3914C20.3914 4.91315 20.3914 6.01298 20.3914 7.36968H6.39136ZM120.044 17.8262H16.8479C11.0729 17.8262 6.39136 13.1447 6.39136 7.36968H20.3914C20.3914 8.72638 20.3914 9.8262 20.3914 9.8262H120.044V17.8262ZM16.8479 17.8262C11.0729 17.8262 6.39136 13.1447 6.39136 7.36968C6.39136 1.5947 11.0729 -3.08685 16.8479 -3.08685L20.3914 4.91315C20.3914 4.91315 20.3914 6.01298 20.3914 7.36968C20.3914 8.72638 20.3914 9.8262 20.3914 9.8262L16.8479 17.8262ZM120.044 0.913155V13.8262V0.913155Z" fill="black" mask="url(#path-7-inside-3_218_157)"/>
<mask id="path-9-inside-4_218_157" fill="white">
<path d="M0 56.1522C0 51.2657 3.96131 47.3044 8.84783 47.3044H129.609V65.0001H8.84783C3.96131 65.0001 0 61.0388 0 56.1522Z"/>
</mask>
<path d="M0 47.3044H129.609H0ZM129.609 70.0001H3.58355C-2.26158 70.0001 -7 65.2616 -7 59.4165L7 56.1522C7 58.2773 7.8273 60.0001 8.84783 60.0001H129.609V70.0001ZM3.58355 70.0001C-2.26158 70.0001 -7 65.2616 -7 59.4165C-7 52.7272 -1.57723 47.3044 5.1121 47.3044H8.84783C7.8273 47.3044 7 51.2657 7 56.1522C7 58.2773 7.8273 60.0001 8.84783 60.0001L3.58355 70.0001ZM129.609 47.3044V65.0001V47.3044Z" fill="black" mask="url(#path-9-inside-4_218_157)"/>
<defs>
<filter id="filter0_i_218_157" x="22" y="13.348" width="101.565" height="2.3913" filterUnits="userSpaceOnUse" color-interpolation-filters="sRGB">
<feFlood flood-opacity="0" result="BackgroundImageFix"/>
<feBlend mode="normal" in="SourceGraphic" in2="BackgroundImageFix" result="shape"/>
<feColorMatrix in="SourceAlpha" type="matrix" values="0 0 0 0 0 0 0 0 0 0 0 0 0 0 0 0 0 0 127 0" result="hardAlpha"/>
<feOffset dx="100"/>
<feGaussianBlur stdDeviation="2"/>
<feComposite in2="hardAlpha" operator="arithmetic" k2="-1" k3="1"/>
<feColorMatrix type="matrix" values="0 0 0 0 0 0 0 0 0 0 0 0 0 0 0 0 0 0 0.05 0"/>
<feBlend mode="normal" in2="shape" result="effect1_innerShadow_218_157"/>
</filter>
<filter id="filter1_i_218_157" x="16.261" y="15.2609" width="109.696" height="12.913" filterUnits="userSpaceOnUse" color-interpolation-filters="sRGB">
<feFlood flood-opacity="0" result="BackgroundImageFix"/>
<feBlend mode="normal" in="SourceGraphic" in2="BackgroundImageFix" result="shape"/>
<feColorMatrix in="SourceAlpha" type="matrix" values="0 0 0 0 0 0 0 0 0 0 0 0 0 0 0 0 0 0 127 0" result="hardAlpha"/>
<feOffset dx="100"/>
<feGaussianBlur stdDeviation="2"/>
<feComposite in2="hardAlpha" operator="arithmetic" k2="-1" k3="1"/>
<feColorMatrix type="matrix" values="0 0 0 0 0 0 0 0 0 0 0 0 0 0 0 0 0 0 0.05 0"/>
<feBlend mode="normal" in2="shape" result="effect1_innerShadow_218_157"/>
</filter>
<filter id="filter2_i_218_157" x="13.3914" y="0.913155" width="110.652" height="12.913" filterUnits="userSpaceOnUse" color-interpolation-filters="sRGB">
<feFlood flood-opacity="0" result="BackgroundImageFix"/>
<feBlend mode="normal" in="SourceGraphic" in2="BackgroundImageFix" result="shape"/>
<feColorMatrix in="SourceAlpha" type="matrix" values="0 0 0 0 0 0 0 0 0 0 0 0 0 0 0 0 0 0 127 0" result="hardAlpha"/>
<feOffset dx="100"/>
<feGaussianBlur stdDeviation="2"/>
<feComposite in2="hardAlpha" operator="arithmetic" k2="-1" k3="1"/>
<feColorMatrix type="matrix" values="0 0 0 0 0 0 0 0 0 0 0 0 0 0 0 0 0 0 0.05 0"/>
<feBlend mode="normal" in2="shape" result="effect1_innerShadow_218_157"/>
</filter>
</defs>
</svg>
