<svg width="450" height="98" viewBox="0 0 450 98" fill="none" xmlns="http://www.w3.org/2000/svg">
<path d="M175.771 51.2373L176.069 50.384H191.131L190.789 51.2373H175.771ZM192.325 40.3147C192.61 39.2622 192.724 38.4942 192.667 38.0107C192.638 37.4987 192.396 37.1573 191.941 36.9867C191.486 36.7876 190.775 36.6738 189.808 36.6453L190.021 35.792C190.761 35.8204 191.7 35.8489 192.837 35.8773C193.975 35.9058 195.127 35.92 196.293 35.92C197.602 35.92 198.825 35.9058 199.963 35.8773C201.129 35.8489 202.068 35.8204 202.779 35.792L202.565 36.6453C201.598 36.6738 200.844 36.7876 200.304 36.9867C199.764 37.1573 199.337 37.4987 199.024 38.0107C198.74 38.4942 198.455 39.2622 198.171 40.3147L192.539 61.4773C192.283 62.5013 192.169 63.2693 192.197 63.7813C192.226 64.2933 192.468 64.6347 192.923 64.8053C193.378 64.976 194.089 65.0898 195.056 65.1467L194.885 66C194.203 65.9431 193.278 65.9147 192.112 65.9147C190.974 65.8862 189.751 65.872 188.443 65.872C187.276 65.872 186.124 65.8862 184.987 65.9147C183.849 65.9147 182.896 65.9431 182.128 66L182.299 65.1467C183.266 65.0898 184.02 64.976 184.56 64.8053C185.1 64.6347 185.527 64.2933 185.84 63.7813C186.153 63.2693 186.437 62.5013 186.693 61.4773L192.325 40.3147ZM174.704 61.4773C174.448 62.5013 174.334 63.2693 174.363 63.7813C174.391 64.2933 174.633 64.6347 175.088 64.8053C175.543 64.976 176.254 65.0898 177.221 65.1467L177.051 66C176.311 65.9431 175.372 65.9147 174.235 65.9147C173.097 65.8862 171.945 65.872 170.779 65.872C169.47 65.872 168.247 65.8862 167.109 65.9147C166 65.9147 165.076 65.9431 164.336 66L164.549 65.1467C165.488 65.0898 166.213 64.976 166.725 64.8053C167.266 64.6347 167.692 64.2933 168.005 63.7813C168.318 63.2693 168.603 62.5013 168.859 61.4773L174.491 40.3147C174.775 39.2622 174.889 38.4942 174.832 38.0107C174.775 37.4987 174.519 37.1573 174.064 36.9867C173.637 36.7876 172.94 36.6738 171.973 36.6453L172.187 35.792C172.869 35.8204 173.78 35.8489 174.917 35.8773C176.084 35.9058 177.321 35.92 178.629 35.92C179.796 35.92 180.933 35.9058 182.043 35.8773C183.18 35.8489 184.148 35.8204 184.944 35.792L184.731 36.6453C183.764 36.6738 183.01 36.7876 182.469 36.9867C181.929 37.1573 181.502 37.4987 181.189 38.0107C180.905 38.4942 180.62 39.2622 180.336 40.3147L174.704 61.4773ZM212.422 44.24C211.682 44.24 210.929 44.624 210.161 45.392C209.393 46.1316 208.667 47.1556 207.985 48.464C207.302 49.744 206.676 51.1804 206.107 52.7733C205.567 54.3662 205.14 56.016 204.827 57.7227C204.514 59.4009 204.358 61.008 204.358 62.544C204.358 63.6818 204.5 64.5067 204.785 65.0187C205.098 65.5022 205.553 65.744 206.15 65.744C206.861 65.744 207.601 65.3742 208.369 64.6347C209.137 63.8951 209.862 62.8996 210.545 61.648C211.256 60.368 211.882 58.9458 212.422 57.3813C212.962 55.7884 213.389 54.1387 213.702 52.432C214.015 50.7253 214.171 49.0613 214.171 47.44C214.171 46.2453 214.015 45.4204 213.702 44.9653C213.418 44.4818 212.991 44.24 212.422 44.24ZM199.323 59.6853C199.323 58.4053 199.494 57.0258 199.835 55.5467C200.205 54.0676 200.746 52.6169 201.457 51.1947C202.168 49.744 203.05 48.4356 204.102 47.2693C205.183 46.0747 206.434 45.136 207.857 44.4533C209.279 43.7422 210.886 43.3867 212.678 43.3867C214.726 43.3867 216.319 43.9698 217.457 45.136C218.623 46.2738 219.206 47.9947 219.206 50.2987C219.206 51.5787 219.021 52.9582 218.651 54.4373C218.31 55.9164 217.784 57.3813 217.073 58.832C216.362 60.2542 215.466 61.5627 214.385 62.7573C213.332 63.9236 212.095 64.8622 210.673 65.5733C209.25 66.256 207.643 66.5973 205.851 66.5973C203.803 66.5973 202.196 66.0142 201.03 64.848C199.892 63.6818 199.323 61.9609 199.323 59.6853ZM226.47 66H221.222L226.342 47.6107C226.456 47.2693 226.527 46.928 226.555 46.5867C226.612 46.2453 226.584 45.9467 226.47 45.6907C226.385 45.4347 226.171 45.3067 225.83 45.3067C225.29 45.3067 224.792 45.5911 224.337 46.16C223.882 46.7004 223.412 47.6391 222.929 48.976L222.203 50.9813H221.393L222.502 47.7813C222.9 46.6436 223.398 45.7618 223.995 45.136C224.621 44.4818 225.275 44.0267 225.958 43.7707C226.669 43.5147 227.366 43.3867 228.049 43.3867C228.987 43.3867 229.684 43.5716 230.139 43.9413C230.594 44.3111 230.893 44.7947 231.035 45.392C231.178 45.9893 231.192 46.6436 231.078 47.3547C230.993 48.0373 230.865 48.7058 230.694 49.36L226.47 66ZM237.35 48.336C237.521 47.824 237.634 47.3547 237.691 46.928C237.777 46.4729 237.762 46.1173 237.649 45.8613C237.535 45.5769 237.265 45.4347 236.838 45.4347C236.155 45.4347 235.402 45.8613 234.577 46.7147C233.78 47.568 232.955 48.7627 232.102 50.2987C231.249 51.8347 230.41 53.6409 229.585 55.7173C228.788 57.7653 228.034 60.0124 227.323 62.4587L227.963 58.2347C229.215 54.5938 230.395 51.6924 231.505 49.5307C232.642 47.3404 233.837 45.776 235.089 44.8373C236.34 43.8702 237.748 43.3867 239.313 43.3867C240.223 43.3867 240.906 43.5716 241.361 43.9413C241.844 44.3111 242.157 44.8089 242.299 45.4347C242.47 46.032 242.498 46.7147 242.385 47.4827C242.299 48.2507 242.143 49.0329 241.915 49.8293L237.435 66H232.102L237.35 48.336ZM248.486 48.336C248.742 47.5396 248.87 46.8569 248.87 46.288C248.87 45.7191 248.642 45.4347 248.187 45.4347C247.505 45.4347 246.779 45.8187 246.011 46.5867C245.243 47.3547 244.418 48.5067 243.537 50.0427C242.683 51.5502 241.816 53.3991 240.934 55.5893C240.052 57.7796 239.156 60.3111 238.246 63.184L238.673 59.8133C239.697 56.656 240.678 54.0249 241.617 51.92C242.555 49.8151 243.494 48.1369 244.433 46.8853C245.371 45.6338 246.338 44.7378 247.334 44.1973C248.358 43.6569 249.439 43.3867 250.577 43.3867C251.8 43.3867 252.667 43.6996 253.179 44.3253C253.691 44.9511 253.933 45.7476 253.905 46.7147C253.876 47.6818 253.677 48.72 253.307 49.8293L249.126 62.3733C248.842 63.2267 248.77 63.824 248.913 64.1653C249.055 64.5067 249.339 64.6773 249.766 64.6773C250.193 64.6773 250.634 64.4356 251.089 63.952C251.572 63.4684 252.084 62.4871 252.625 61.008L253.307 59.088H254.118L253.051 62.2027C252.653 63.3973 252.141 64.3076 251.515 64.9333C250.918 65.5591 250.264 65.9858 249.553 66.2133C248.87 66.4693 248.202 66.5973 247.547 66.5973C246.722 66.5973 246.054 66.4693 245.542 66.2133C245.03 65.9858 244.632 65.6444 244.347 65.1893C244.006 64.6204 243.864 63.9093 243.921 63.056C244.006 62.2027 244.234 61.2071 244.603 60.0693L248.486 48.336ZM260.623 56.6133C261.96 56.1013 263.183 55.5751 264.293 55.0347C265.43 54.4658 266.383 53.8684 267.151 53.2427C268.204 52.304 269.057 51.2089 269.711 49.9573C270.366 48.6773 270.693 47.2836 270.693 45.776C270.693 45.1218 270.636 44.6951 270.522 44.496C270.408 44.2969 270.238 44.1973 270.01 44.1973C269.356 44.1973 268.645 44.5102 267.877 45.136C267.109 45.7618 266.355 46.6293 265.615 47.7387C264.876 48.8196 264.193 50.0427 263.567 51.408C262.97 52.7733 262.486 54.2098 262.117 55.7173C261.747 57.2249 261.562 58.7182 261.562 60.1973C261.562 61.7049 261.846 62.7716 262.415 63.3973C263.013 63.9947 263.795 64.2933 264.762 64.2933C265.587 64.2933 266.568 64.0231 267.706 63.4827C268.844 62.9422 269.967 61.9609 271.077 60.5387L271.759 60.88C271.19 61.8187 270.437 62.7289 269.498 63.6107C268.559 64.4924 267.478 65.2178 266.255 65.7867C265.061 66.3271 263.738 66.5973 262.287 66.5973C261.093 66.5973 260.012 66.3698 259.045 65.9147C258.078 65.4596 257.324 64.7911 256.783 63.9093C256.243 62.9991 255.973 61.8898 255.973 60.5813C255.973 59.1876 256.214 57.7084 256.698 56.144C257.182 54.5511 257.864 53.0009 258.746 51.4933C259.656 49.9858 260.723 48.6204 261.946 47.3973C263.198 46.1742 264.577 45.2071 266.085 44.496C267.592 43.7564 269.214 43.3867 270.949 43.3867C272.086 43.3867 273.039 43.6569 273.807 44.1973C274.575 44.7093 274.959 45.5058 274.959 46.5867C274.959 47.696 274.646 48.7342 274.021 49.7013C273.395 50.6684 272.542 51.5502 271.461 52.3467C270.408 53.1431 269.242 53.8542 267.962 54.48C266.71 55.1058 265.445 55.6462 264.165 56.1013C262.885 56.5564 261.69 56.9262 260.581 57.2107L260.623 56.6133ZM306.092 35.792C305.666 36.9013 305.225 38.2524 304.77 39.8453C304.315 41.4098 303.845 43.3298 303.362 45.6053H302.423C302.679 44.1547 302.779 42.9031 302.722 41.8507C302.693 40.7698 302.48 39.8596 302.082 39.12C301.541 38.096 300.802 37.3422 299.863 36.8587C298.953 36.3751 297.943 36.1333 296.834 36.1333C295.411 36.1333 294.018 36.5316 292.652 37.328C291.315 38.1244 290.078 39.2196 288.94 40.6133C287.803 42.0071 286.793 43.6 285.911 45.392C285.058 47.184 284.389 49.0898 283.906 51.1093C283.422 53.1004 283.18 55.0916 283.18 57.0827C283.18 59.9271 283.707 62.0462 284.759 63.44C285.84 64.8053 287.291 65.488 289.111 65.488C290.192 65.488 291.358 65.232 292.61 64.72C293.861 64.208 294.942 63.4684 295.852 62.5013C296.62 61.7049 297.275 60.7947 297.815 59.7707C298.384 58.7467 299.01 57.4098 299.692 55.76H300.631C299.92 58.3484 299.365 60.4391 298.967 62.032C298.597 63.5964 298.313 64.9191 298.114 66H297.175C297.26 65.4027 297.303 64.9191 297.303 64.5493C297.303 63.9236 297.189 63.568 296.962 63.4827C296.734 63.3973 296.379 63.5111 295.895 63.824C295.155 64.336 294.373 64.8053 293.548 65.232C292.723 65.6302 291.827 65.9573 290.86 66.2133C289.922 66.4693 288.855 66.5973 287.66 66.5973C284.048 66.5973 281.317 65.7013 279.468 63.9093C277.619 62.1173 276.695 59.5573 276.695 56.2293C276.695 54.2382 277.008 52.2471 277.634 50.256C278.288 48.2649 279.198 46.3733 280.364 44.5813C281.559 42.7609 282.967 41.1538 284.588 39.76C286.238 38.3378 288.059 37.2284 290.05 36.432C292.069 35.6071 294.231 35.1947 296.535 35.1947C297.73 35.1947 298.711 35.3369 299.479 35.6213C300.247 35.8773 300.901 36.2187 301.442 36.6453C301.982 37.0436 302.451 37.4844 302.85 37.968C303.248 38.3947 303.632 38.4516 304.002 38.1387C304.371 37.7973 304.77 37.0151 305.196 35.792H306.092ZM317.197 44.24C316.457 44.24 315.704 44.624 314.936 45.392C314.168 46.1316 313.442 47.1556 312.76 48.464C312.077 49.744 311.451 51.1804 310.882 52.7733C310.342 54.3662 309.915 56.016 309.602 57.7227C309.289 59.4009 309.133 61.008 309.133 62.544C309.133 63.6818 309.275 64.5067 309.56 65.0187C309.873 65.5022 310.328 65.744 310.925 65.744C311.636 65.744 312.376 65.3742 313.144 64.6347C313.912 63.8951 314.637 62.8996 315.32 61.648C316.031 60.368 316.657 58.9458 317.197 57.3813C317.737 55.7884 318.164 54.1387 318.477 52.432C318.79 50.7253 318.946 49.0613 318.946 47.44C318.946 46.2453 318.79 45.4204 318.477 44.9653C318.193 44.4818 317.766 44.24 317.197 44.24ZM304.098 59.6853C304.098 58.4053 304.269 57.0258 304.61 55.5467C304.98 54.0676 305.521 52.6169 306.232 51.1947C306.943 49.744 307.825 48.4356 308.877 47.2693C309.958 46.0747 311.209 45.136 312.632 44.4533C314.054 43.7422 315.661 43.3867 317.453 43.3867C319.501 43.3867 321.094 43.9698 322.232 45.136C323.398 46.2738 323.981 47.9947 323.981 50.2987C323.981 51.5787 323.796 52.9582 323.426 54.4373C323.085 55.9164 322.559 57.3813 321.848 58.832C321.137 60.2542 320.241 61.5627 319.16 62.7573C318.107 63.9236 316.87 64.8622 315.448 65.5733C314.025 66.256 312.418 66.5973 310.626 66.5973C308.578 66.5973 306.971 66.0142 305.805 64.848C304.667 63.6818 304.098 61.9609 304.098 59.6853ZM338.797 44.24C338.057 44.24 337.304 44.624 336.536 45.392C335.768 46.1316 335.042 47.1556 334.36 48.464C333.677 49.744 333.051 51.1804 332.482 52.7733C331.942 54.3662 331.515 56.016 331.202 57.7227C330.889 59.4009 330.733 61.008 330.733 62.544C330.733 63.6818 330.875 64.5067 331.16 65.0187C331.473 65.5022 331.928 65.744 332.525 65.744C333.236 65.744 333.976 65.3742 334.744 64.6347C335.512 63.8951 336.237 62.8996 336.92 61.648C337.631 60.368 338.257 58.9458 338.797 57.3813C339.337 55.7884 339.764 54.1387 340.077 52.432C340.39 50.7253 340.546 49.0613 340.546 47.44C340.546 46.2453 340.39 45.4204 340.077 44.9653C339.793 44.4818 339.366 44.24 338.797 44.24ZM325.698 59.6853C325.698 58.4053 325.869 57.0258 326.21 55.5467C326.58 54.0676 327.121 52.6169 327.832 51.1947C328.543 49.744 329.425 48.4356 330.477 47.2693C331.558 46.0747 332.809 45.136 334.232 44.4533C335.654 43.7422 337.261 43.3867 339.053 43.3867C341.101 43.3867 342.694 43.9698 343.832 45.136C344.998 46.2738 345.581 47.9947 345.581 50.2987C345.581 51.5787 345.396 52.9582 345.026 54.4373C344.685 55.9164 344.159 57.3813 343.448 58.832C342.737 60.2542 341.841 61.5627 340.76 62.7573C339.707 63.9236 338.47 64.8622 337.048 65.5733C335.625 66.256 334.018 66.5973 332.226 66.5973C330.178 66.5973 328.571 66.0142 327.405 64.848C326.267 63.6818 325.698 61.9609 325.698 59.6853ZM351.266 66H346.018L354.466 37.5413C354.751 36.5742 354.708 35.8631 354.338 35.408C353.997 34.9529 353.129 34.7253 351.736 34.7253L352.034 33.8293C353.912 33.8009 355.576 33.6444 357.026 33.36C358.505 33.0471 359.899 32.6204 361.208 32.08L351.266 66ZM362.616 62.928C362.502 63.5822 362.502 64.0373 362.616 64.2933C362.729 64.5493 362.971 64.6773 363.341 64.6773C363.796 64.6773 364.251 64.4356 364.706 63.952C365.161 63.44 365.645 62.4587 366.157 61.008L366.797 59.088H367.608L366.584 62.2027C366.185 63.3689 365.673 64.2649 365.048 64.8907C364.45 65.5164 363.782 65.9573 363.042 66.2133C362.303 66.4693 361.563 66.5973 360.824 66.5973C359.572 66.5973 358.648 66.2133 358.05 65.4453C357.453 64.6773 357.325 63.5111 357.666 61.9467L358.434 58.5333C358.804 56.9689 358.69 55.8311 358.093 55.12C357.496 54.4089 356.201 53.968 354.21 53.7973V53.6267C355.405 53.5413 356.6 53.5413 357.794 53.6267C358.989 53.712 360.056 53.968 360.994 54.3947C361.933 54.7929 362.63 55.3902 363.085 56.1867C363.54 56.9831 363.625 58.0356 363.341 59.344L362.616 62.928ZM365.218 44.24C364.849 44.24 364.521 44.2969 364.237 44.4107C363.981 44.5244 363.725 44.6809 363.469 44.88C362.957 45.3067 362.53 45.8898 362.189 46.6293C361.848 47.3404 361.506 48.1084 361.165 48.9333C360.852 49.7582 360.44 50.5404 359.928 51.28C359.444 52.0196 358.79 52.6311 357.965 53.1147C357.14 53.5698 356.059 53.7831 354.722 53.7547L354.296 53.7973L354.381 53.328C355.689 53.2427 356.728 52.9582 357.496 52.4747C358.292 51.9911 358.918 51.3938 359.373 50.6827C359.828 49.9431 360.198 49.1751 360.482 48.3787C360.795 47.5822 361.122 46.8284 361.464 46.1173C361.805 45.4062 362.26 44.8231 362.829 44.368C363.313 43.9698 363.782 43.7138 364.237 43.6C364.692 43.4578 365.105 43.3867 365.474 43.3867C366.726 43.3867 367.622 43.728 368.162 44.4107C368.703 45.0933 368.959 45.904 368.93 46.8427C368.93 47.4116 368.802 47.952 368.546 48.464C368.29 48.976 367.921 49.4027 367.437 49.744C366.953 50.0569 366.385 50.2133 365.73 50.2133C364.905 50.2133 364.294 49.9858 363.896 49.5307C363.526 49.0471 363.341 48.5067 363.341 47.9093C363.369 47.2267 363.611 46.5867 364.066 45.9893C364.55 45.3636 365.09 44.8516 365.688 44.4533C365.631 44.3964 365.56 44.3538 365.474 44.3253C365.389 44.2684 365.304 44.24 365.218 44.24ZM379.071 51.2373L379.369 50.384H394.431L394.089 51.2373H379.071ZM395.625 40.3147C395.91 39.2622 396.024 38.4942 395.967 38.0107C395.938 37.4987 395.696 37.1573 395.241 36.9867C394.786 36.7876 394.075 36.6738 393.108 36.6453L393.321 35.792C394.061 35.8204 395 35.8489 396.137 35.8773C397.275 35.9058 398.427 35.92 399.593 35.92C400.902 35.92 402.125 35.9058 403.263 35.8773C404.429 35.8489 405.368 35.8204 406.079 35.792L405.865 36.6453C404.898 36.6738 404.144 36.7876 403.604 36.9867C403.064 37.1573 402.637 37.4987 402.324 38.0107C402.04 38.4942 401.755 39.2622 401.471 40.3147L395.839 61.4773C395.583 62.5013 395.469 63.2693 395.497 63.7813C395.526 64.2933 395.768 64.6347 396.223 64.8053C396.678 64.976 397.389 65.0898 398.356 65.1467L398.185 66C397.503 65.9431 396.578 65.9147 395.412 65.9147C394.274 65.8862 393.051 65.872 391.743 65.872C390.576 65.872 389.424 65.8862 388.287 65.9147C387.149 65.9147 386.196 65.9431 385.428 66L385.599 65.1467C386.566 65.0898 387.32 64.976 387.86 64.8053C388.4 64.6347 388.827 64.2933 389.14 63.7813C389.453 63.2693 389.737 62.5013 389.993 61.4773L395.625 40.3147ZM378.004 61.4773C377.748 62.5013 377.634 63.2693 377.663 63.7813C377.691 64.2933 377.933 64.6347 378.388 64.8053C378.843 64.976 379.554 65.0898 380.521 65.1467L380.351 66C379.611 65.9431 378.672 65.9147 377.535 65.9147C376.397 65.8862 375.245 65.872 374.079 65.872C372.77 65.872 371.547 65.8862 370.409 65.9147C369.3 65.9147 368.376 65.9431 367.636 66L367.849 65.1467C368.788 65.0898 369.513 64.976 370.025 64.8053C370.566 64.6347 370.992 64.2933 371.305 63.7813C371.618 63.2693 371.903 62.5013 372.159 61.4773L377.791 40.3147C378.075 39.2622 378.189 38.4942 378.132 38.0107C378.075 37.4987 377.819 37.1573 377.364 36.9867C376.937 36.7876 376.24 36.6738 375.273 36.6453L375.487 35.792C376.169 35.8204 377.08 35.8489 378.217 35.8773C379.384 35.9058 380.621 35.92 381.929 35.92C383.096 35.92 384.233 35.9058 385.343 35.8773C386.48 35.8489 387.448 35.8204 388.244 35.792L388.031 36.6453C387.064 36.6738 386.31 36.7876 385.769 36.9867C385.229 37.1573 384.802 37.4987 384.489 38.0107C384.205 38.4942 383.92 39.2622 383.636 40.3147L378.004 61.4773ZM419.295 51.1093C418.214 54.1529 417.204 56.6702 416.266 58.6613C415.327 60.6524 414.388 62.2311 413.45 63.3973C412.539 64.5636 411.601 65.3884 410.634 65.872C409.667 66.3556 408.643 66.5973 407.562 66.5973C406.367 66.5973 405.457 66.3271 404.831 65.7867C404.234 65.2462 403.907 64.5067 403.85 63.568C403.793 62.6009 403.978 61.4631 404.404 60.1547L408.543 47.6107C408.827 46.7573 408.899 46.16 408.756 45.8187C408.614 45.4773 408.33 45.3067 407.903 45.3067C407.476 45.3067 407.021 45.5484 406.538 46.032C406.083 46.5156 405.585 47.4969 405.044 48.976L404.362 50.896H403.551L404.618 47.7813C405.044 46.5867 405.556 45.6764 406.154 45.0507C406.779 44.4249 407.434 43.9982 408.116 43.7707C408.827 43.5147 409.51 43.3867 410.164 43.3867C411.416 43.3867 412.312 43.6711 412.852 44.24C413.421 44.7804 413.706 45.5484 413.706 46.544C413.734 47.5111 413.521 48.6347 413.066 49.9147L409.183 61.648C408.5 63.696 408.699 64.72 409.78 64.72C410.378 64.72 411.032 64.3929 411.743 63.7387C412.454 63.056 413.179 62.1031 413.919 60.88C414.687 59.6284 415.441 58.1778 416.18 56.528C416.948 54.8782 417.674 53.0862 418.356 51.152C419.067 49.2178 419.707 47.184 420.276 45.0507L419.295 51.1093ZM420.618 62.3733C420.419 63.0844 420.333 63.6533 420.362 64.08C420.39 64.4782 420.646 64.6773 421.13 64.6773C421.67 64.6773 422.168 64.4071 422.623 63.8667C423.107 63.2978 423.59 62.3449 424.074 61.008L424.799 59.0027H425.61L424.5 62.2027C424.102 63.3404 423.59 64.2364 422.964 64.8907C422.367 65.5164 421.713 65.9573 421.002 66.2133C420.319 66.4693 419.636 66.5973 418.954 66.5973C418.271 66.5973 417.688 66.4693 417.204 66.2133C416.721 65.9858 416.365 65.6587 416.138 65.232C415.853 64.72 415.725 64.0942 415.754 63.3547C415.811 62.6151 415.981 61.7049 416.266 60.624L420.532 43.984C421.556 43.9556 422.523 43.8987 423.434 43.8133C424.344 43.728 425.183 43.5858 425.951 43.3867L420.618 62.3733ZM441.462 45.3493C440.836 45.3493 440.139 45.7618 439.371 46.5867C438.632 47.4116 437.878 48.5493 437.11 50C436.342 51.4222 435.617 53.0293 434.934 54.8213C434.251 56.6133 433.682 58.4907 433.227 60.4533L433.995 56.016C435.019 53.0009 436.029 50.5689 437.025 48.72C438.02 46.8711 439.044 45.52 440.097 44.6667C441.149 43.8133 442.258 43.3867 443.425 43.3867C445.018 43.3867 446.241 43.9271 447.094 45.008C447.976 46.0889 448.417 47.6818 448.417 49.7867C448.417 51.0951 448.232 52.5031 447.862 54.0107C447.492 55.5182 446.938 57.0116 446.198 58.4907C445.487 59.9698 444.605 61.3351 443.553 62.5867C442.5 63.8098 441.291 64.7911 439.926 65.5307C438.589 66.2418 437.082 66.5973 435.403 66.5973C434.578 66.5973 433.839 66.3982 433.185 66C432.53 65.6018 432.061 65.0471 431.777 64.336L432.118 63.6107C432.431 64.2649 432.786 64.7342 433.185 65.0187C433.611 65.3031 434.095 65.4453 434.635 65.4453C435.517 65.4453 436.37 65.0898 437.195 64.3787C438.02 63.6391 438.788 62.6578 439.499 61.4347C440.21 60.2116 440.836 58.8604 441.377 57.3813C441.917 55.8738 442.33 54.3662 442.614 52.8587C442.898 51.3227 443.041 49.8862 443.041 48.5493C443.041 47.4116 442.898 46.6009 442.614 46.1173C442.358 45.6053 441.974 45.3493 441.462 45.3493ZM432.246 64.2933C431.393 64.4924 430.497 64.8196 429.558 65.2747C428.648 65.7013 427.766 66.1707 426.913 66.6827L426.273 66.384C426.472 65.9858 426.642 65.5876 426.785 65.1893C426.898 64.7627 427.012 64.336 427.126 63.9093L434.721 37.5413C434.977 36.5742 434.934 35.8631 434.593 35.408C434.28 34.9529 433.426 34.7253 432.033 34.7253L432.289 33.8293C434.166 33.8009 435.816 33.6444 437.238 33.36C438.689 33.0471 440.068 32.6204 441.377 32.08L432.246 64.2933Z" fill="#474747"/>
<g filter="url(#filter0_i_4_11)">
<path d="M22 47.5436C22 46.8833 22.5354 46.348 23.1957 46.348H119.565V48.7393H23.1957C22.5354 48.7393 22 48.2039 22 47.5436V47.5436Z" fill="#DD2B2B" fill-opacity="0.82"/>
</g>
<mask id="path-3-inside-1_4_11" fill="white">
<path d="M2.39136 71.4567C2.39136 66.5702 6.35266 62.6089 11.2392 62.6089H129.609V80.3045H11.2392C6.35267 80.3045 2.39136 76.3432 2.39136 71.4567V71.4567Z"/>
</mask>
<path d="M-4.60864 68.1924C-4.60864 62.3473 0.129774 57.6089 5.97491 57.6089H129.609V67.6089H11.2392C10.2187 67.6089 9.39136 69.3316 9.39136 71.4567L-4.60864 68.1924ZM129.609 80.3045H2.39136H129.609ZM7.50346 80.3045C0.81413 80.3045 -4.60864 74.8818 -4.60864 68.1924C-4.60864 62.3473 0.129774 57.6089 5.97491 57.6089L11.2392 67.6089C10.2187 67.6089 9.39136 69.3316 9.39136 71.4567C9.39136 76.3432 10.2187 80.3045 11.2392 80.3045H7.50346ZM129.609 62.6089V80.3045V62.6089Z" fill="black" mask="url(#path-3-inside-1_4_11)"/>
<mask id="path-5-inside-2_4_11" fill="white">
<path d="M16.2609 54.7174C16.2609 51.1516 19.1516 48.2609 22.7175 48.2609H121.957V61.174H22.7175C19.1516 61.174 16.2609 58.2833 16.2609 54.7174V54.7174Z"/>
</mask>
<g filter="url(#filter1_i_4_11)">
<path d="M16.2609 54.7174C16.2609 51.1516 19.1516 48.2609 22.7175 48.2609H121.957V61.174H22.7175C19.1516 61.174 16.2609 58.2833 16.2609 54.7174V54.7174Z" fill="#DD2B2B" fill-opacity="0.82"/>
</g>
<path d="M9.26094 54.7174C9.26094 48.9425 13.9425 44.2609 19.7175 44.2609H121.957V52.2609H23.2609C23.2609 52.2609 23.2609 53.3607 23.2609 54.7174H9.26094ZM121.957 65.174H19.7175C13.9425 65.174 9.26094 60.4924 9.26094 54.7174H23.2609C23.2609 56.0741 23.2609 57.174 23.2609 57.174H121.957V65.174ZM19.7175 65.174C13.9425 65.174 9.26094 60.4924 9.26094 54.7174C9.26094 48.9425 13.9425 44.2609 19.7175 44.2609L23.2609 52.2609C23.2609 52.2609 23.2609 53.3607 23.2609 54.7174C23.2609 56.0741 23.2609 57.174 23.2609 57.174L19.7175 65.174ZM121.957 48.2609V61.174V48.2609Z" fill="black" mask="url(#path-5-inside-2_4_11)"/>
<mask id="path-7-inside-3_4_11" fill="white">
<path d="M13.3914 40.3697C13.3914 36.8038 16.2821 33.9132 19.8479 33.9132H120.044V46.8262H19.8479C16.2821 46.8262 13.3914 43.9355 13.3914 40.3697V40.3697Z"/>
</mask>
<g filter="url(#filter2_i_4_11)">
<path d="M13.3914 40.3697C13.3914 36.8038 16.2821 33.9132 19.8479 33.9132H120.044V46.8262H19.8479C16.2821 46.8262 13.3914 43.9355 13.3914 40.3697V40.3697Z" fill="#DD2B2B" fill-opacity="0.82"/>
</g>
<path d="M6.39139 40.3697C6.39139 34.5947 11.0729 29.9132 16.8479 29.9132H120.044V37.9132H20.3914C20.3914 37.9132 20.3914 39.013 20.3914 40.3697H6.39139ZM120.044 50.8262H16.8479C11.0729 50.8262 6.39139 46.1447 6.39139 40.3697H20.3914C20.3914 41.7264 20.3914 42.8262 20.3914 42.8262H120.044V50.8262ZM16.8479 50.8262C11.0729 50.8262 6.39139 46.1447 6.39139 40.3697C6.39139 34.5947 11.0729 29.9132 16.8479 29.9132L20.3914 37.9132C20.3914 37.9132 20.3914 39.013 20.3914 40.3697C20.3914 41.7264 20.3914 42.8262 20.3914 42.8262L16.8479 50.8262ZM120.044 33.9132V46.8262V33.9132Z" fill="black" mask="url(#path-7-inside-3_4_11)"/>
<mask id="path-9-inside-4_4_11" fill="white">
<path d="M0 89.1522C0 84.2657 3.96131 80.3044 8.84783 80.3044H129.609V98.0001H8.84782C3.96131 98.0001 0 94.0388 0 89.1522V89.1522Z"/>
</mask>
<path d="M0 80.3044H129.609H0ZM129.609 103H3.58355C-2.26158 103 -7 98.2616 -7 92.4165L7 89.1522C7 91.2773 7.8273 93.0001 8.84783 93.0001H129.609V103ZM3.58355 103C-2.26158 103 -7 98.2616 -7 92.4165C-7 85.7272 -1.57723 80.3044 5.1121 80.3044H8.84783C7.8273 80.3044 7 84.2657 7 89.1522C7 91.2773 7.8273 93.0001 8.84783 93.0001L3.58355 103ZM129.609 80.3044V98.0001V80.3044Z" fill="black" mask="url(#path-9-inside-4_4_11)"/>
<g filter="url(#filter3_i_4_11)">
<circle cx="71.0217" cy="17.4131" r="16.5" fill="#FE9C0A"/>
</g>
<defs>
<filter id="filter0_i_4_11" x="22" y="46.348" width="101.565" height="2.3913" filterUnits="userSpaceOnUse" color-interpolation-filters="sRGB">
<feFlood flood-opacity="0" result="BackgroundImageFix"/>
<feBlend mode="normal" in="SourceGraphic" in2="BackgroundImageFix" result="shape"/>
<feColorMatrix in="SourceAlpha" type="matrix" values="0 0 0 0 0 0 0 0 0 0 0 0 0 0 0 0 0 0 127 0" result="hardAlpha"/>
<feOffset dx="100"/>
<feGaussianBlur stdDeviation="2"/>
<feComposite in2="hardAlpha" operator="arithmetic" k2="-1" k3="1"/>
<feColorMatrix type="matrix" values="0 0 0 0 0 0 0 0 0 0 0 0 0 0 0 0 0 0 0.05 0"/>
<feBlend mode="normal" in2="shape" result="effect1_innerShadow_4_11"/>
</filter>
<filter id="filter1_i_4_11" x="16.2609" y="48.2609" width="109.696" height="12.913" filterUnits="userSpaceOnUse" color-interpolation-filters="sRGB">
<feFlood flood-opacity="0" result="BackgroundImageFix"/>
<feBlend mode="normal" in="SourceGraphic" in2="BackgroundImageFix" result="shape"/>
<feColorMatrix in="SourceAlpha" type="matrix" values="0 0 0 0 0 0 0 0 0 0 0 0 0 0 0 0 0 0 127 0" result="hardAlpha"/>
<feOffset dx="100"/>
<feGaussianBlur stdDeviation="2"/>
<feComposite in2="hardAlpha" operator="arithmetic" k2="-1" k3="1"/>
<feColorMatrix type="matrix" values="0 0 0 0 0 0 0 0 0 0 0 0 0 0 0 0 0 0 0.05 0"/>
<feBlend mode="normal" in2="shape" result="effect1_innerShadow_4_11"/>
</filter>
<filter id="filter2_i_4_11" x="13.3914" y="33.9132" width="110.652" height="12.913" filterUnits="userSpaceOnUse" color-interpolation-filters="sRGB">
<feFlood flood-opacity="0" result="BackgroundImageFix"/>
<feBlend mode="normal" in="SourceGraphic" in2="BackgroundImageFix" result="shape"/>
<feColorMatrix in="SourceAlpha" type="matrix" values="0 0 0 0 0 0 0 0 0 0 0 0 0 0 0 0 0 0 127 0" result="hardAlpha"/>
<feOffset dx="100"/>
<feGaussianBlur stdDeviation="2"/>
<feComposite in2="hardAlpha" operator="arithmetic" k2="-1" k3="1"/>
<feColorMatrix type="matrix" values="0 0 0 0 0 0 0 0 0 0 0 0 0 0 0 0 0 0 0.05 0"/>
<feBlend mode="normal" in2="shape" result="effect1_innerShadow_4_11"/>
</filter>
<filter id="filter3_i_4_11" x="54.5217" y="0.913086" width="37" height="33" filterUnits="userSpaceOnUse" color-interpolation-filters="sRGB">
<feFlood flood-opacity="0" result="BackgroundImageFix"/>
<feBlend mode="normal" in="SourceGraphic" in2="BackgroundImageFix" result="shape"/>
<feColorMatrix in="SourceAlpha" type="matrix" values="0 0 0 0 0 0 0 0 0 0 0 0 0 0 0 0 0 0 127 0" result="hardAlpha"/>
<feOffset dx="4"/>
<feGaussianBlur stdDeviation="2"/>
<feComposite in2="hardAlpha" operator="arithmetic" k2="-1" k3="1"/>
<feColorMatrix type="matrix" values="0 0 0 0 0 0 0 0 0 0 0 0 0 0 0 0 0 0 0.1 0"/>
<feBlend mode="normal" in2="shape" result="effect1_innerShadow_4_11"/>
</filter>
</defs>
</svg>
